<?xml version="1.0" encoding="UTF-8" standalone="no"?>
<svg width="14px" height="14px" viewBox="0 0 14 14" version="1.1" xmlns="http://www.w3.org/2000/svg" xmlns:xlink="http://www.w3.org/1999/xlink">
    <!-- Generator: sketchtool 39.1 (31720) - http://www.bohemiancoding.com/sketch -->
    <title>F69DFACA-AF3F-4770-9DE6-0D0E025A78D3</title>
    <desc>Created with sketchtool.</desc>
    <defs></defs>
    <g id="symbols" stroke="none" stroke-width="1" fill="none" fill-rule="evenodd">
        <g id="import_icon_14px" fill="#001d60">
            <rect id="Rectangle-12" transform="translate(2.500000, 8.748291) rotate(-90.000000) translate(-2.500000, -8.748291) " x="-0.751708984" y="8.24829102" width="6.50341797" height="1"></rect>
            <polygon id="Rectangle-12" transform="translate(11.500000, 8.748291) rotate(-90.000000) translate(-11.500000, -8.748291) " points="8.24829102 8.24829102 14.751709 8.24829102 14.751709 9.24829102 8.24829102 9.24829102"></polygon>
            <rect id="Rectangle-12" transform="translate(7.000000, 5.357143) rotate(-90.000000) translate(-7.000000, -5.357143) " x="3.35714286" y="4.8956044" width="7.28571429" height="0.923076923"></rect>
            <polygon id="Triangle-1" transform="translate(7.000000, 8.967285) rotate(-270.000000) translate(-7.000000, -8.967285) " points="5.96728516 10.9672852 5.96728516 6.96728516 8.03271484 8.96728516"></polygon>
            <rect id="Rectangle-12" transform="translate(7.000000, 12.500000) rotate(-360.000000) translate(-7.000000, -12.500000) " x="2" y="12" width="10" height="1"></rect>
            <rect id="Rectangle-12" transform="translate(3.500000, 5.500000) rotate(-360.000000) translate(-3.500000, -5.500000) " x="2" y="5" width="3" height="1"></rect>
            <rect id="Rectangle-12" transform="translate(10.500000, 5.500000) rotate(-360.000000) translate(-10.500000, -5.500000) " x="9" y="5" width="3" height="1"></rect>
        </g>
    </g>
</svg>