<?xml version="1.0" encoding="UTF-8" standalone="no"?>
<svg width="14px" height="14px" viewBox="0 0 14 14" version="1.1" xmlns="http://www.w3.org/2000/svg" xmlns:xlink="http://www.w3.org/1999/xlink">
    <!-- Generator: sketchtool 39.1 (31720) - http://www.bohemiancoding.com/sketch -->
    <title>E81BA112-1DE6-4CD8-8B2C-74E9FABBA4E8</title>
    <desc>Created with sketchtool.</desc>
    <defs></defs>
    <g id="Symbols" stroke="none" stroke-width="1" fill="none" fill-rule="evenodd">
        <g id="export_icon_14px" fill="#001d60">
            <rect id="Rectangle-12" transform="translate(11.500000, 5.251709) rotate(-270.000000) translate(-11.500000, -5.251709) " x="8.24829102" y="4.75170898" width="6.50341797" height="1"></rect>
            <polygon id="Rectangle-12" transform="translate(2.500000, 5.251709) rotate(-270.000000) translate(-2.500000, -5.251709) " points="-0.751708984 4.75170898 5.75170898 4.75170898 5.75170898 5.75170898 -0.751708984 5.75170898"></polygon>
            <rect id="Rectangle-12" transform="translate(7.000000, 8.000000) rotate(-270.000000) translate(-7.000000, -8.000000) " x="4.21428571" y="7.53846154" width="5.57142857" height="0.923076923"></rect>
            <polygon id="Triangle-1" transform="translate(7.000000, 11.532715) rotate(-270.000000) translate(-7.000000, -11.532715) " points="5.96728516 13.5327148 5.96728516 9.53271484 8.03271484 11.5327148"></polygon>
            <polygon id="Rectangle-12" transform="translate(7.000000, 1.500000) rotate(-540.000000) translate(-7.000000, -1.500000) " points="2 1 12 1 12 2 2 2"></polygon>
            <rect id="Rectangle-12" transform="translate(10.500000, 8.500000) rotate(-540.000000) translate(-10.500000, -8.500000) " x="9" y="8" width="3" height="1"></rect>
            <rect id="Rectangle-12" transform="translate(3.500000, 8.500000) rotate(-540.000000) translate(-3.500000, -8.500000) " x="2" y="8" width="3" height="1"></rect>
        </g>
    </g>
</svg>