<svg xmlns="http://www.w3.org/2000/svg" xmlns:xlink="http://www.w3.org/1999/xlink"><defs><path id="a" d="M2.043 10h2.085l5.94-6-2.007-2-6.018 6z"/><mask id="b" x="0" y="0" width="8.025" height="8" fill="#fff"><use xlink:href="#a"/></mask><path id="a" d="M2.043 10h2.085l5.94-6-2.007-2-6.018 6z"/><mask id="b" x="0" y="0" width="8.025" height="8" fill="#fff"><use xlink:href="#a"/></mask><path d="M9 15c4.97 0 9-6 9-6s-4.03-6-9-6-9 6-9 6 4.03 6 9 6z" id="a"/><mask id="c" x="0" y="0" width="18" height="12" fill="#fff"><use xlink:href="#a"/></mask><ellipse id="b" cx="9" cy="9" rx="3" ry="3"/><mask id="d" x="0" y="0" width="6" height="6" fill="#fff"><use xlink:href="#b"/></mask><path d="M9 15c4.97 0 9-6 9-6s-4.03-6-9-6-9 6-9 6 4.03 6 9 6z" id="a"/><mask id="c" x="0" y="0" width="18" height="12" fill="#fff"><use xlink:href="#a"/></mask><ellipse id="b" cx="9" cy="9" rx="3" ry="3"/><mask id="d" x="0" y="0" width="6" height="6" fill="#fff"><use xlink:href="#b"/></mask><path id="a" d="M1 4h12v8H1z"/><mask id="c" x="0" y="0" width="12" height="8" fill="#fff"><use xlink:href="#a"/></mask><path id="b" d="M1 2h6v3H1z"/><mask id="d" x="0" y="0" width="6" height="3" fill="#fff"><use xlink:href="#b"/></mask><path id="a" d="M1 4h12v8H1z"/><mask id="c" x="0" y="0" width="12" height="8" fill="#fff"><use xlink:href="#a"/></mask><path id="b" d="M1 2h6v3H1z"/><mask id="d" x="0" y="0" width="6" height="3" fill="#fff"><use xlink:href="#b"/></mask><rect id="a" x="1" y="1" width="9.818" height="9.818" rx="4.909"/><mask id="b" x="0" y="0" width="9.818" height="9.818" fill="#fff"><use xlink:href="#a"/></mask><rect id="a" x="1" y="1" width="9.818" height="9.818" rx="4.909"/><mask id="b" x="0" y="0" width="9.818" height="9.818" fill="#fff"><use xlink:href="#a"/></mask><circle id="a" cx="6.5" cy="6.5" r="5.5"/><mask id="b" x="0" y="0" width="11" height="11" fill="#fff"><use xlink:href="#a"/></mask><path id="a" d="M7 10H0V6l3-3h4z"/><mask id="b" x="0" y="0" width="7" height="7" fill="#fff"><use xlink:href="#a"/></mask><path id="a" d="M7 10H0V6l3-3h4z"/><mask id="b" x="0" y="0" width="7" height="7" fill="#fff"><use xlink:href="#a"/></mask><path id="a" d="M5.8 8.667L13 7.333V12H7.4z"/><mask id="e" x="0" y="0" width="7.2" height="4.667" fill="#fff"><use xlink:href="#a"/></mask><path id="b" d="M1 7.333l4 1.334L6.6 12H1z"/><mask id="f" x="0" y="0" width="5.6" height="4.667" fill="#fff"><use xlink:href="#b"/></mask><path id="c" d="M7.4 2H13v4.667L5.8 8z"/><mask id="g" x="0" y="0" width="7.2" height="6" fill="#fff"><use xlink:href="#c"/></mask><path id="d" d="M1 2h5.6L5 8 1 6.667z"/><mask id="h" x="0" y="0" width="5.6" height="6" fill="#fff"><use xlink:href="#d"/></mask><path id="a" d="M5.8 8.667L13 7.333V12H7.4z"/><mask id="e" x="0" y="0" width="7.2" height="4.667" fill="#fff"><use xlink:href="#a"/></mask><path id="b" d="M1 7.333l4 1.334L6.6 12H1z"/><mask id="f" x="0" y="0" width="5.6" height="4.667" fill="#fff"><use xlink:href="#b"/></mask><path id="c" d="M7.4 2H13v4.667L5.8 8z"/><mask id="g" x="0" y="0" width="7.2" height="6" fill="#fff"><use xlink:href="#c"/></mask><path id="d" d="M1 2h5.6L5 8 1 6.667z"/><mask id="h" x="0" y="0" width="5.6" height="6" fill="#fff"><use xlink:href="#d"/></mask></defs><symbol id="delete-icon-dark" viewBox="0 0 8 8"><title>7E750F4E-0E8A-4E4C-BEF0-CF2FE17523CE</title><g fill="#001d60" fill-rule="evenodd"><path d="M.182 7.253L7.253.182l.707.707L.89 7.96z"/><path d="M7.253 7.96L.182.89.889.181 7.96 7.253z"/></g></symbol><symbol id="delete-icon" viewBox="0 0 8 8"><title>7E750F4E-0E8A-4E4C-BEF0-CF2FE17523CE</title><g fill="#FF5100" fill-rule="evenodd"><path d="M.182 7.253L7.253.182l.707.707L.89 7.96z"/><path d="M7.253 7.96L.182.89.889.181 7.96 7.253z"/></g></symbol><symbol id="edit-icon-dark" viewBox="0 0 10 12"><title>E50FB460-BC30-40A8-BC73-8A23FB3D2EE5</title><g transform="translate(-2)" fill="none" fill-rule="evenodd"><path fill="#001d60" d="M2 11h10v1H2z"/><use stroke="#001d60" mask="url(#b)" stroke-width="2" xlink:href="#a"/><path d="M10.672 2.682L9.356 1.376" stroke="#001d60" stroke-linecap="square"/></g></symbol><symbol id="edit-icon" viewBox="0 0 10 12"><title>E50FB460-BC30-40A8-BC73-8A23FB3D2EE5</title><g transform="translate(-2)" fill="none" fill-rule="evenodd"><path fill="#5261FF" d="M2 11h10v1H2z"/><use stroke="#5261FF" mask="url(#b)" stroke-width="2" xlink:href="#a"/><path d="M10.672 2.682L9.356 1.376" stroke="#5261FF" stroke-linecap="square"/></g></symbol><symbol id="export-icon-dark" viewBox="0 0 14 14"><title>E81BA112-1DE6-4CD8-8B2C-74E9FABBA4E8</title><g fill="#001d60" fill-rule="evenodd"><path d="M12 2v6.503h-1V2zM3 2v6.503H2V2zM7.462 5.214v5.571h-.923V5.214z"/><path d="M5 10.5h4l-2 2.065zM12 2H2V1h10zM12 9H9V8h3zM5 9H2V8h3z"/></g></symbol><symbol id="export-icon" viewBox="0 0 14 14"><title>E81BA112-1DE6-4CD8-8B2C-74E9FABBA4E8</title><g fill="#5261FF" fill-rule="evenodd"><path d="M12 2v6.503h-1V2zM3 2v6.503H2V2zM7.462 5.214v5.571h-.923V5.214z"/><path d="M5 10.5h4l-2 2.065zM12 2H2V1h10zM12 9H9V8h3zM5 9H2V8h3z"/></g></symbol><symbol id="eye-icon-dark" viewBox="0 0 18 18"><title>DB35ABA7-531B-4272-A92E-0620B9482AE8</title><g fill="none" fill-rule="evenodd"><use stroke="#001d60" mask="url(#c)" stroke-width="2" xlink:href="#a"/><use stroke="#001d60" mask="url(#d)" stroke-width="2" xlink:href="#b"/><ellipse fill="#001d60" cx="9" cy="9" rx="1" ry="1"/></g></symbol><symbol id="eye-icon" viewBox="0 0 18 18"><title>DB35ABA7-531B-4272-A92E-0620B9482AE8</title><g fill="none" fill-rule="evenodd"><use stroke="#5261FF" mask="url(#c)" stroke-width="2" xlink:href="#a"/><use stroke="#5261FF" mask="url(#d)" stroke-width="2" xlink:href="#b"/><ellipse fill="#5261FF" cx="9" cy="9" rx="1" ry="1"/></g></symbol><symbol id="group-icon-dark" viewBox="0 0 14 14"><title>D17870DB-E6C5-46B5-BE3F-D97EE8962D7F</title><g stroke="#001D60" stroke-width="2" fill="none" fill-rule="evenodd"><use mask="url(#c)" xlink:href="#a"/><use mask="url(#d)" transform="matrix(1 0 0 -1 0 7)" xlink:href="#b"/></g></symbol><symbol id="group-icon" viewBox="0 0 14 14"><title>1D4EF255-62B1-45ED-90FF-F32268D9ED6B</title><g stroke="#5261FF" stroke-width="2" fill="none" fill-rule="evenodd"><use mask="url(#c)" xlink:href="#a"/><use mask="url(#d)" transform="matrix(1 0 0 -1 0 7)" xlink:href="#b"/></g></symbol><symbol id="import-icon-dark" viewBox="0 0 14 14"><title>F69DFACA-AF3F-4770-9DE6-0D0E025A78D3</title><g fill="#001d60" fill-rule="evenodd"><path d="M2 12V5.497h1V12zM11 12V5.497h1V12zM6.539 9V1.714h.923V9z"/><path d="M5 7.935h4L7 10zM2 12h10v1H2zM2 5h3v1H2zM9 5h3v1H9z"/></g></symbol><symbol id="import-icon" viewBox="0 0 14 14"><title>F69DFACA-AF3F-4770-9DE6-0D0E025A78D3</title><g fill="#5261FF" fill-rule="evenodd"><path d="M2 12V5.497h1V12zM11 12V5.497h1V12zM6.539 9V1.714h.923V9z"/><path d="M5 7.935h4L7 10zM2 12h10v1H2zM2 5h3v1H2zM9 5h3v1H9z"/></g></symbol><symbol id="plus-icon-dark" viewBox="0 0 14 14"><title>381DB9CD-2268-4F8E-AB90-25E731958A6A</title><g fill="#001d60" fill-rule="evenodd"><path d="M2 7h10v1H2z"/><path d="M6.5 12.5v-10h1v10z"/></g></symbol><symbol id="plus-icon" viewBox="0 0 14 14"><title>381DB9CD-2268-4F8E-AB90-25E731958A6A</title><g fill="#5261FF" fill-rule="evenodd"><path d="M2 7h10v1H2z"/><path d="M6.5 12.5v-10h1v10z"/></g></symbol><symbol id="search-icon-dark" viewBox="0 0 14 14"><title>B13FBE1D-AC45-43E8-80B6-CA71600525D3</title><g stroke="#001d60" fill="none" fill-rule="evenodd"><use mask="url(#b)" stroke-width="2" xlink:href="#a"/><path d="M12.455 12.455L9.182 9.182" stroke-linecap="square"/></g></symbol><symbol id="search-icon" viewBox="0 0 14 14"><title>B13FBE1D-AC45-43E8-80B6-CA71600525D3</title><g stroke="#5261FF" fill="none" fill-rule="evenodd"><use mask="url(#b)" stroke-width="2" xlink:href="#a"/><path d="M12.455 12.455L9.182 9.182" stroke-linecap="square"/></g></symbol><symbol id="time-icon-dark" viewBox="0 0 11 11"><title>B1BE832C-6B12-431D-A1BF-F28A638DC040</title><g transform="translate(-1 -1)" fill="none" fill-rule="evenodd"><use stroke="#001D60" mask="url(#b)" stroke-width="2" xlink:href="#a"/><path fill="#001D60" d="M6 3h1v3H6zM9 6v1H6V6z"/></g></symbol><symbol id="truck-icon-dark" viewBox="0 0 18 19"><title>05100771-6C09-42B2-85FA-DD8CD8742B7D</title><g transform="translate(0 4)" fill="none" fill-rule="evenodd"><path fill="#001d60" d="M17 1h1v9h-1zM6 1h1v8.967H6z"/><path fill="#001d60" d="M6 9h11v1H6zM6 0h12v1H6zM2 10h3v1H2zM11 10h3v1h-3z"/><use stroke="#001d60" mask="url(#b)" stroke-width="2" xlink:href="#a"/></g></symbol><symbol id="truck-icon" viewBox="0 0 18 19"><title>05100771-6C09-42B2-85FA-DD8CD8742B7D</title><g transform="translate(0 4)" fill="none" fill-rule="evenodd"><path fill="#5261FF" d="M17 1h1v9h-1zM6 1h1v8.967H6z"/><path fill="#5261FF" d="M6 9h11v1H6zM6 0h12v1H6zM2 10h3v1H2zM11 10h3v1h-3z"/><use stroke="#5261FF" mask="url(#b)" stroke-width="2" xlink:href="#a"/></g></symbol><symbol id="zone-icon-dark" viewBox="0 0 14 14"><title>3EE4F404-6EAE-44DC-96AF-B22D50381A36</title><g stroke="#001D60" stroke-width="2" fill="none" fill-rule="evenodd"><use mask="url(#e)" xlink:href="#a"/><use mask="url(#f)" xlink:href="#b"/><use mask="url(#g)" xlink:href="#c"/><use mask="url(#h)" xlink:href="#d"/></g></symbol><symbol id="zone-icon-white" viewBox="0 0 14 14"><title>3EE4F404-6EAE-44DC-96AF-B22D50381A36</title><g stroke="#fff" stroke-width="2" fill="none" fill-rule="evenodd"><use mask="url(#e)" xlink:href="#a"/><use mask="url(#f)" xlink:href="#b"/><use mask="url(#g)" xlink:href="#c"/><use mask="url(#h)" xlink:href="#d"/></g></symbol></svg>